<?xml version="1.0" encoding="utf-8"?>
<!-- Svg Vector Icons : http://www.onlinewebfonts.com/icon -->
<!DOCTYPE svg PUBLIC "-//W3C//DTD SVG 1.1//EN" "http://www.w3.org/Graphics/SVG/1.1/DTD/svg11.dtd">
<svg version="1.1" xmlns="http://www.w3.org/2000/svg" xmlns:xlink="http://www.w3.org/1999/xlink" x="0px" y="0px" viewBox="0 0 256 256" enable-background="new 0 0 256 256" xml:space="preserve">
<metadata> Svg Vector Icons : http://www.onlinewebfonts.com/icon </metadata>
<g><g><path fill="#000000" d="M246,137.9c0-10.2-11.9-20.2-28-25.5c-0.7-0.2-5.3-2.3-2.5-11.1h0c7.5-7.7,13.3-20.2,13.3-32.4c0-18.9-12.5-28.7-27.1-28.7c-14.6,0-27,9.9-27,28.7c0,12.3,5.7,24.8,13.3,32.5c2.9,7.7-2.3,10.6-3.4,11c-3.8,1.4-7.5,3-10.8,4.9c0-3.3,0-6.1,0-7.1c0-10.2-13.3-20.2-29.3-25.5c-0.7-0.2-5.3-2.3-2.5-11.1h0C149.3,66,155,53.5,155,41.3c0-18.9-12.5-28.7-27.1-28.7c-14.6,0-27,9.9-27,28.7c0,12.3,5.7,24.8,13.3,32.5c2.9,7.7-2.3,10.6-3.4,11c-15.2,5.5-28.1,15.6-28.1,25.5c0,1,0,3.9,0,7.3c-3.4-2-7.2-3.7-11.2-5.2c-1.1-0.4-6.4-3.3-3.4-11c7.6-7.7,13.3-20.2,13.3-32.5c0-18.9-12.5-28.7-27-28.7c-14.6,0-27,9.9-27,28.8c0,12.3,5.7,24.7,13.2,32.4h0c2.9,8.8-1.7,10.8-2.5,11.1C22,117.8,10,127.7,10,137.9c0,2.7,0,44.6,0,47.3c0,0.1,0,0.2,0,0.3c0,0.2,0,0.4,0,0.6c0,25.6,29,47.7,70.4,57.4v-14.3c0-11.7,14.9-22.3,29.6-27.7c0,0,1.6-0.6,2.3-2.3c0.6-1.4,0.6-3.2-0.1-5.2c-8.3-8.6-13.6-21.9-13.6-33.8c0-21.4,14.7-31,29.3-31c14.6,0,29.4,9.6,29.4,31c0,11.8-5.2,24.9-13.5,33.6c-1.6,5.2,0,7.3,1.2,7.8c14.3,4.7,30.9,14.8,30.9,27.7v14.2c41.3-9.8,70.1-31.7,70.1-57.3c0-0.2,0-0.4,0-0.6c0-0.1,0-0.2,0-0.3C246,182.6,246,140.6,246,137.9L246,137.9z"/></g></g>
</svg>