<?xml version="1.0" encoding="utf-8"?>
<!-- Svg Vector Icons : http://www.onlinewebfonts.com/icon -->
<!DOCTYPE svg PUBLIC "-//W3C//DTD SVG 1.1//EN" "http://www.w3.org/Graphics/SVG/1.1/DTD/svg11.dtd">
<svg version="1.1" xmlns="http://www.w3.org/2000/svg" xmlns:xlink="http://www.w3.org/1999/xlink" x="0px" y="0px" viewBox="0 0 256 256" enable-background="new 0 0 256 256" xml:space="preserve">
<metadata> Svg Vector Icons : http://www.onlinewebfonts.com/icon </metadata>
<g><g><g><path fill="#000000" d="M143.9,25.1c-17.7,2.6-32.1,12.8-39.8,28.1c-3.5,7-5.6,15.3-5.7,22.8l0,3.5l-0.6-3.5c-1.6-8.8-5.7-16.6-12.4-23.3C73,40.3,55.5,36.4,38.9,42.4C27.4,46.5,17,56.9,12.8,68.5c-5.9,16.2-2,33.8,10,46.1c1.4,1.5,2.3,2.7,2,2.8c-1.4,0.5-6.2,4.6-8.1,6.9c-2.7,3.4-5.2,8.4-6,12.4c-1,4.7-1,66.6,0,71.3c2.1,10,9.6,18.2,20,22l3,1.1h64.7h64.7l3-1.1c9.5-3.4,16.6-10.6,19.4-19.6c0.5-1.6,1-4.7,1.2-7.1l0.3-4.2l25.8,16.1c28.2,17.7,26.7,17,30,14.4c3.2-2.4,3,1.5,3-57.3c0-43.8-0.1-53.3-0.6-54.6c-0.8-2-3.1-3.9-5.1-4.3c-1.4-0.2-3.5,1-27.3,15.9l-25.8,16.1l-0.3-4.3c-0.5-7-2.7-12.3-7.6-17.9l-2.4-2.9l2.5-1.7c3.5-2.3,9.4-8,12.1-11.7c14.7-20,13.2-47.2-3.6-65.7c-6.5-7-16.1-12.6-25.9-15.1C158.3,25.3,147.3,24.6,143.9,25.1z M159.6,40.7c1.5,0.4,4.4,1.6,6.5,2.5c22.9,11,28,41.2,10,59.2c-7.2,7.2-15.5,10.6-26,10.6c-8.1,0-13.7-1.6-19.9-5.7c-8.1-5.3-13.2-12.5-15.9-22.4c-1.1-3.9-1-13.6,0.1-17.7c3.7-13.9,15.4-24.7,29.4-27.2C147.1,39.4,156.3,39.9,159.6,40.7z M60.5,55c13.3,2.8,23.3,15.2,23.3,28.8c0,7.6-3.1,15.1-8.5,20.5c-3.7,3.7-7,5.8-11.8,7.5c-2.9,1-4.2,1.2-8.9,1.2c-4.6,0-6.1-0.1-8.8-1c-7.9-2.6-14.4-8.1-17.7-14.9c-4.3-8.9-4.3-17.8,0-26.6C33.9,58.7,47.4,52.3,60.5,55z M101,92.3c2.2,6.5,5,11.6,10,17.7l2.7,3.4h-13.1c-7.2,0-13.2-0.1-13.2-0.2c0-0.1,1.1-1.6,2.3-3.3c5.1-6.7,8.2-15.4,8.7-24.2l0.3-4.8l0.6,3.9C99.6,86.9,100.4,90.3,101,92.3z M163.7,129.4c2.9,1.5,5.7,4.2,7.1,7.2l1.2,2.3v33.4v33.4l-1.2,2.4c-1.6,3-3.9,5.3-7,7l-2.4,1.2H98.7H36l-3.2-1.6c-2.3-1.2-3.6-2.3-4.8-3.9c-3.3-4.3-3.2-3.2-3.2-38.6c0-34.9-0.1-33.8,2.9-38.1c1.5-2.3,4.7-4.6,7.5-5.5c1.5-0.5,14.3-0.6,64.1-0.5l62.2,0.1L163.7,129.4z M231.3,172.3v36.9l-22.1-11.1L187,187v-14.7v-14.7l22-11c12.1-6.1,22-11.1,22.1-11.1C231.2,135.4,231.3,152,231.3,172.3z"/></g></g></g>
</svg>